<svg width="258" height="46" viewBox="0 0 258 46" fill="none" xmlns="http://www.w3.org/2000/svg">
<path d="M47.7446 0.511353C46.325 0.511863 44.9375 0.933285 43.7574 1.72234C42.5773 2.51139 41.6577 3.63263 41.1148 4.9443C40.5719 6.25598 40.4301 7.69917 40.7073 9.09142C40.9846 10.4837 41.6684 11.7624 42.6724 12.7661C43.6764 13.7697 44.9554 14.4531 46.3478 14.7298C47.7401 15.0066 49.1833 14.8643 50.4947 14.3209C51.8062 13.7776 52.9271 12.8575 53.7158 11.6771C54.5044 10.4968 54.9253 9.10905 54.9253 7.68946C54.9254 6.74657 54.7397 5.8129 54.3789 4.94179C54.018 4.07068 53.4891 3.27921 52.8222 2.61261C52.1554 1.946 51.3637 1.41733 50.4925 1.05678C49.6213 0.696242 48.6875 0.510902 47.7446 0.511353ZM47.7446 12.2356C45.533 12.2356 43.7374 10.2002 43.7374 7.68946C43.7374 5.17871 45.533 3.14244 47.7446 3.14244C49.9562 3.14244 51.7544 5.17785 51.7544 7.68946C51.7544 10.2011 49.9597 12.2356 47.7446 12.2356Z" fill="#C9203C"/>
<path d="M67.2838 1.00397H55.8242V3.5001H60.0532H60.042V14.5419H63.0668V3.5001H63.078H67.2838V1.00397Z" fill="#C9203C"/>
<path d="M75.5985 1.00397H71.8388L66.2517 14.5419H69.7836L70.9449 11.4999H76.4855L77.6468 14.5419H81.1787L75.5916 1.00397M71.8096 9.21182L73.7006 4.25737H73.7264L75.6174 9.21182H71.8139" fill="#C9203C"/>
<path d="M11.5362 1.00397H0.0732422V3.5001H4.30309H4.29106V14.5419H7.31496V3.5001H7.32699H11.5362V1.00397Z" fill="#C9203C"/>
<path d="M19.4881 0.511353C18.0683 0.511183 16.6804 0.932027 15.4999 1.72066C14.3193 2.5093 13.3992 3.63031 12.8557 4.94192C12.3123 6.25353 12.17 7.69684 12.4469 9.08931C12.7238 10.4818 13.4074 11.7609 14.4112 12.7648C15.415 13.7688 16.6941 14.4525 18.0865 14.7296C19.4789 15.0066 20.9223 14.8645 22.2339 14.3213C23.5456 13.778 24.6667 12.8579 25.4555 11.6775C26.2443 10.497 26.6653 9.10919 26.6653 7.68946C26.6655 6.74683 26.48 5.81338 26.1194 4.94245C25.7588 4.07152 25.2302 3.28015 24.5637 2.61357C23.8972 1.94699 23.1059 1.41824 22.235 1.05754C21.3641 0.696836 20.4307 0.51124 19.4881 0.511353ZM19.4881 12.2356C17.273 12.2356 15.4808 10.2002 15.4808 7.68946C15.4808 5.17871 17.273 3.14244 19.4881 3.14244C21.7031 3.14244 23.4944 5.17785 23.4944 7.68946C23.4944 10.2011 21.7023 12.2356 19.4881 12.2356Z" fill="#C9203C"/>
<path d="M40.4243 1.00397H36.8924L33.6158 6.69505L30.3366 1.00397H26.8047L32.0823 9.40178V9.4671V14.5419H33.6158H35.1466V9.4671V9.40178L40.4243 1.00397Z" fill="#C9203C"/>
<path d="M257.933 24.0192H0.0732422V21.3107H257.933V24.0192Z" fill="#EFEFF0"/>
<path d="M2.74354 45.6782V38.5139H0.0668945V37.5546H6.50579V38.5139H3.81883V45.6782H2.74354Z" fill="#252627"/>
<path d="M8.1867 41.7389C8.1867 42.717 8.44972 43.4881 8.97577 44.0519C9.22647 44.3261 9.53303 44.5434 9.8748 44.6892C10.2166 44.8349 10.5856 44.9058 10.957 44.8969C11.7662 44.8969 12.432 44.6126 12.9546 44.0442C13.4772 43.4757 13.7388 42.6683 13.7394 41.622C13.7524 41.0275 13.6378 40.4372 13.4033 39.8908C13.1982 39.4191 12.8566 39.0194 12.4226 38.7433C11.9887 38.4711 11.4856 38.3296 10.9734 38.3359C10.6101 38.3301 10.2492 38.3965 9.9118 38.5312C9.57435 38.6659 9.26701 38.8663 9.00757 39.1207C8.45918 39.6421 8.18498 40.5149 8.18498 41.7389H8.1867ZM7.07788 41.7217C7.07788 40.3728 7.44004 39.3172 8.16435 38.5551C8.88867 37.793 9.82329 37.4116 10.9682 37.411C11.6808 37.401 12.3825 37.5868 12.9967 37.9482C13.5929 38.3015 14.0714 38.823 14.372 39.4473C14.6964 40.1278 14.8585 40.8742 14.8456 41.628C14.8584 42.3941 14.6875 43.1522 14.3471 43.8388C14.0382 44.4639 13.545 44.9793 12.934 45.3155C12.3287 45.6488 11.648 45.8214 10.957 45.8166C10.2353 45.828 9.52491 45.6362 8.907 45.263C8.31589 44.9004 7.8431 44.3736 7.54634 43.7468C7.23765 43.1152 7.07825 42.4212 7.08046 41.7182L7.07788 41.7217Z" fill="#252627"/>
<path d="M18.5192 45.6782V42.24L15.3887 37.558H16.696L18.2974 40.0077C18.5931 40.4661 18.8684 40.9246 19.1234 41.383C19.3693 40.9532 19.6641 40.4733 20.0079 39.9432L21.5835 37.558H22.8358L19.5945 42.2408V45.679L18.5192 45.6782Z" fill="#252627"/>
<path d="M24.5827 41.7389C24.5827 42.717 24.8457 43.4881 25.3718 44.0519C25.6225 44.3261 25.9291 44.5434 26.2708 44.6892C26.6126 44.8349 26.9816 44.9058 27.3531 44.8969C28.1622 44.8969 28.828 44.6126 29.3506 44.0442C29.8733 43.4757 30.1346 42.6683 30.1346 41.622C30.1479 41.0276 30.0336 40.4373 29.7993 39.8908C29.5942 39.4191 29.2526 39.0194 28.8186 38.7433C28.3849 38.4707 27.8816 38.3292 27.3694 38.3359C27.0064 38.3304 26.6459 38.3969 26.3087 38.5316C25.9716 38.6663 25.6645 38.8665 25.4053 39.1207C24.8569 39.6421 24.5827 40.5149 24.5827 41.7389ZM23.4739 41.7217C23.4739 40.3728 23.8361 39.3172 24.5604 38.5551C25.2847 37.793 26.2193 37.4116 27.3642 37.411C28.0768 37.401 28.7785 37.5868 29.3928 37.9482C29.9892 38.3011 30.4678 38.8227 30.768 39.4473C31.0931 40.1276 31.2556 40.8741 31.2425 41.628C31.2554 42.3943 31.0842 43.1524 30.7431 43.8388C30.4348 44.4641 29.9418 44.9796 29.3309 45.3155C28.7256 45.6488 28.0449 45.8214 27.3539 45.8166C26.6322 45.828 25.9218 45.6362 25.3039 45.263C24.7115 44.9009 24.2375 44.374 23.9398 43.7468C23.6311 43.1152 23.4717 42.4212 23.4739 41.7182V41.7217Z" fill="#252627"/>
<path d="M34.6967 45.6782V38.5139H32.02V37.5546H38.4589V38.5139H35.772V45.6782H34.6967Z" fill="#252627"/>
<path d="M40.1704 42.3431H42.921L42.0735 40.0928C41.815 39.4097 41.6231 38.8482 41.4976 38.4081C41.3917 38.9358 41.2451 39.4545 41.0592 39.9596L40.167 42.3431H40.1704ZM37.8264 45.6782L40.9466 37.558H42.1044L45.4291 45.6816H44.2043L43.2588 43.2216H39.8601L38.9679 45.6816L37.8264 45.6782Z" fill="#252627"/>
<path d="M48.7815 45.6782V37.558H50.4L52.3228 43.3101C52.4999 43.8459 52.6291 44.247 52.7105 44.5135C52.8033 44.2178 52.9466 43.7837 53.1403 43.2112L55.088 37.558H56.5338V45.6816H55.5023V38.8826L53.142 45.6816H52.1681L49.8181 38.7614V45.6773L48.7815 45.6782Z" fill="#252627"/>
<path d="M59.7184 42.3431H62.4689L61.6206 40.0928C61.3621 39.4097 61.1699 38.8482 61.0438 38.4081C60.9386 38.9359 60.7923 39.4546 60.6063 39.9596L59.7184 42.3431ZM57.3752 45.6782L60.492 37.558H61.6498L64.9754 45.6816H63.7523L62.8067 43.2216H59.4072L58.515 45.6782H57.3752Z" fill="#252627"/>
<path d="M67.0606 45.6782V38.5139H64.3831V37.5546H70.8228V38.5139H68.135V45.6782H67.0606Z" fill="#252627"/>
<path d="M71.9502 45.6782V37.5546H77.8235V38.5139H73.0246V41.0014H77.5192V41.9547H73.0246V44.7198H78.0117V45.6782H71.9502Z" fill="#252627"/>
<path d="M80.5886 41.1397H82.8991C83.3907 41.1397 83.775 41.089 84.0517 40.9876C84.3109 40.9004 84.5334 40.7288 84.6835 40.5002C84.8257 40.2838 84.901 40.0303 84.9001 39.7713C84.9044 39.5926 84.8692 39.4151 84.7968 39.2517C84.7244 39.0882 84.6167 38.9428 84.4815 38.8258C84.2024 38.5783 83.7618 38.4545 83.1595 38.4545H80.5886V41.1415V41.1397ZM79.5142 45.6782V37.558H83.1157C83.8394 37.558 84.3898 37.631 84.7669 37.7772C85.1467 37.9256 85.4652 38.1982 85.6703 38.5508C85.8952 38.9194 86.0122 39.3438 86.0081 39.7756C86.0225 40.3176 85.8212 40.8431 85.4485 41.2369C85.0755 41.6317 84.4993 41.8827 83.7199 41.9898C83.9535 42.0945 84.1716 42.2307 84.368 42.3947C84.7095 42.716 85.0093 43.079 85.2603 43.4751L86.6725 45.6859H85.3204L84.246 43.996C83.932 43.5078 83.6741 43.1353 83.4724 42.8786C83.3201 42.6697 83.1355 42.4864 82.9257 42.3354C82.7758 42.2362 82.6101 42.1633 82.4358 42.1196C82.2369 42.0872 82.0355 42.074 81.8341 42.0801H80.5886V45.6902L79.5142 45.6782Z" fill="#252627"/>
<path d="M87.876 45.6782V37.5546H88.9504V45.6782H87.876Z" fill="#252627"/>
<path d="M92.2952 42.3431H95.0457L94.1982 40.0928C93.9392 39.4097 93.7472 38.8482 93.6223 38.4081C93.5164 38.9358 93.3699 39.4545 93.1839 39.9596L92.2952 42.3431ZM89.9512 45.6782L93.0688 37.558H94.2274L97.5522 45.6816H96.3273L95.3818 43.2216H91.9849L91.0918 45.6782H89.9512Z" fill="#252627"/>
<path d="M98.3701 45.6782V37.5546H99.4446V44.7198H103.446V45.6782H98.3701Z" fill="#252627"/>
<path d="M107.491 45.6782V37.5546H108.567V40.8905H112.789V37.5546H113.864V45.6782H112.789V41.8489H108.567V45.6782H107.491Z" fill="#252627"/>
<path d="M117.104 42.3432H119.854L119.007 40.0929C118.748 39.4098 118.556 38.8483 118.431 38.4082C118.325 38.9357 118.179 39.4544 117.993 39.9597L117.1 42.3432H117.104ZM114.76 45.6782L117.88 37.5546H119.038L122.362 45.6782H121.138L120.192 43.2182H116.793L115.9 45.6782H114.76Z" fill="#252627"/>
<path d="M123.21 45.6782V37.5546H124.313L128.579 43.9334V37.5546H129.61V45.6782H128.508L124.241 39.2952V45.6782H123.21Z" fill="#252627"/>
<path d="M132.495 44.7198H134.23C134.765 44.7198 135.185 44.6699 135.49 44.5702C135.762 44.4892 136.012 44.3449 136.219 44.149C136.496 43.8569 136.7 43.5035 136.814 43.1176C136.967 42.6103 137.04 42.0821 137.028 41.5523C137.028 40.7025 136.889 40.0495 136.61 39.5934C136.331 39.1373 135.992 38.8316 135.593 38.6763C135.306 38.5651 134.842 38.5098 134.201 38.5104H132.495V44.7163V44.7198ZM131.42 45.6782V37.558H134.218C134.849 37.558 135.331 37.5969 135.664 37.6749C136.103 37.7684 136.512 37.9679 136.856 38.2559C137.291 38.628 137.622 39.1062 137.817 39.6441C138.039 40.2634 138.147 40.9178 138.136 41.5755C138.145 42.1301 138.072 42.683 137.92 43.2164C137.801 43.6386 137.614 44.0382 137.365 44.3991C137.165 44.687 136.914 44.9365 136.626 45.1358C136.329 45.3276 136.001 45.4655 135.656 45.5432C135.228 45.6407 134.79 45.6872 134.351 45.6816L131.42 45.6782Z" fill="#252627"/>
<path d="M139.568 45.6782V37.5546H140.644V44.7198H144.645V45.6782H139.568Z" fill="#252627"/>
<path d="M146.109 45.6782V37.5546H147.184V45.6782H146.109Z" fill="#252627"/>
<path d="M149.068 45.6782V37.5546H150.171L154.437 43.9334V37.5546H155.468V45.6782H154.366L150.098 39.2952V45.6782H149.068Z" fill="#252627"/>
<path d="M161.075 42.4918V41.5385L164.513 41.5334V44.5478C164.022 44.9478 163.471 45.2686 162.88 45.4985C162.328 45.7089 161.742 45.8167 161.152 45.8165C160.395 45.8257 159.648 45.6486 158.976 45.3008C158.34 44.9749 157.823 44.4558 157.499 43.8181C157.161 43.1467 156.99 42.4036 157.001 41.652C156.995 40.886 157.165 40.1289 157.497 39.4387C157.794 38.7883 158.295 38.2523 158.924 37.9112C159.586 37.5692 160.323 37.3979 161.068 37.4127C161.613 37.405 162.153 37.5019 162.661 37.6981C163.097 37.86 163.483 38.1343 163.779 38.4931C164.075 38.8884 164.284 39.3414 164.394 39.8229L163.424 40.0893C163.333 39.7394 163.179 39.409 162.97 39.1137C162.765 38.8605 162.499 38.6647 162.196 38.5456C161.842 38.4003 161.462 38.3278 161.079 38.3324C160.643 38.3221 160.21 38.3984 159.804 38.5568C159.474 38.6865 159.178 38.8883 158.936 39.1473C158.719 39.3836 158.545 39.6551 158.42 39.9501C158.209 40.4686 158.104 41.0236 158.109 41.5832C158.109 42.307 158.234 42.9127 158.483 43.4003C158.717 43.8721 159.1 44.2538 159.572 44.4868C160.044 44.7218 160.564 44.8431 161.091 44.8409C161.558 44.8405 162.021 44.7495 162.453 44.5727C162.899 44.3968 163.237 44.2074 163.466 44.0046V42.4918H161.075Z" fill="#252627"/>
<path d="M169.437 45.6782V37.5546H170.512V45.6782H169.437Z" fill="#252627"/>
<path d="M172.396 45.6782V37.5546H173.498L177.765 43.9334V37.5546H178.796V45.6782H177.694L173.426 39.2952V45.6782H172.396Z" fill="#252627"/>
<path d="M182.67 45.6782V38.5139H179.994V37.5546H186.433V38.5139H183.745V45.6782H182.67Z" fill="#252627"/>
<path d="M187.558 45.6782V37.5546H193.433V38.5139H188.634V41.0014H193.127V41.9547H188.634V44.7198H193.621V45.6782H187.558Z" fill="#252627"/>
<path d="M196.198 41.1397H198.508C198.999 41.1397 199.384 41.089 199.661 40.9876C199.92 40.9 200.142 40.7285 200.293 40.5002C200.435 40.2837 200.51 40.0302 200.508 39.7713C200.513 39.5927 200.478 39.4152 200.406 39.2517C200.333 39.0883 200.226 38.9428 200.091 38.8258C199.812 38.5783 199.371 38.4545 198.77 38.4545H196.198V41.1415V41.1397ZM195.123 45.6782V37.558H198.724C199.449 37.558 200 37.631 200.376 37.7772C200.756 37.9259 201.074 38.1985 201.28 38.5508C201.504 38.9194 201.622 39.3438 201.617 39.7756C201.632 40.3176 201.43 40.8431 201.058 41.2369C200.684 41.6317 200.107 41.8827 199.328 41.9898C199.562 42.0943 199.78 42.2305 199.976 42.3947C200.318 42.7158 200.618 43.0788 200.869 43.4751L202.282 45.6859H200.931L199.855 43.996C199.542 43.5078 199.284 43.1353 199.082 42.8786C198.93 42.6698 198.745 42.4864 198.536 42.3354C198.386 42.2362 198.22 42.1632 198.045 42.1196C197.846 42.0872 197.645 42.0739 197.443 42.0801H196.197V45.6902L195.123 45.6782Z" fill="#252627"/>
<path d="M203.287 45.6782V37.5546H204.39L208.658 43.9334V37.5546H209.688V45.6782H208.585L204.319 39.2952V45.6782H203.287Z" fill="#252627"/>
<path d="M212.947 42.3432H215.698L214.849 40.0929C214.591 39.4098 214.399 38.8483 214.274 38.4082C214.168 38.9361 214.022 39.4548 213.835 39.9597L212.943 42.3432H212.947ZM210.603 45.6782L213.723 37.5546H214.881L218.206 45.6782H216.982L216.037 43.2182H212.634L211.742 45.6782H210.603Z" fill="#252627"/>
<path d="M220.291 45.6782V38.5139H217.614V37.5546H224.053V38.5139H221.366V45.6782H220.291Z" fill="#252627"/>
<path d="M225.337 45.6782V37.5546H226.412V45.6782H225.337Z" fill="#252627"/>
<path d="M229.09 41.7389C229.09 42.7171 229.353 43.4881 229.879 44.0519C230.129 44.3257 230.435 44.5427 230.776 44.6885C231.117 44.8342 231.485 44.9053 231.856 44.8969C232.665 44.8969 233.331 44.6126 233.854 44.0442C234.376 43.4757 234.638 42.6683 234.638 41.622C234.651 41.0276 234.537 40.4373 234.302 39.8909C234.097 39.4191 233.756 39.0195 233.322 38.7434C232.888 38.4711 232.385 38.3296 231.872 38.3359C231.509 38.3304 231.149 38.3969 230.812 38.5316C230.475 38.6663 230.168 38.8665 229.908 39.1207C229.359 39.6422 229.085 40.5149 229.086 41.7389H229.09ZM227.981 41.7217C227.981 40.3728 228.343 39.3172 229.067 38.5551C229.791 37.793 230.725 37.4116 231.871 37.411C232.583 37.4008 233.285 37.5866 233.899 37.9483C234.496 38.301 234.974 38.8226 235.274 39.4473C235.599 40.1278 235.761 40.8743 235.748 41.628C235.761 42.3941 235.591 43.1522 235.25 43.8388C234.941 44.4636 234.448 44.9789 233.837 45.3155C233.232 45.6488 232.551 45.8214 231.86 45.8166C231.139 45.8281 230.428 45.6363 229.81 45.263C229.219 44.9007 228.746 44.3738 228.45 43.7468C228.141 43.1154 227.981 42.4212 227.984 41.7183L227.981 41.7217Z" fill="#252627"/>
<path d="M237.125 45.6782V37.5546H238.228L242.494 43.9334V37.5546H243.525V45.6782H242.422L238.156 39.2952V45.6782H237.125Z" fill="#252627"/>
<path d="M246.783 42.3431H249.534L248.686 40.0928C248.427 39.4097 248.235 38.8482 248.11 38.4081C248.004 38.9358 247.858 39.4545 247.672 39.9596L246.78 42.3431H246.783ZM244.438 45.6782L247.559 37.558H248.717L252.042 45.6816H250.817L249.872 43.2216H246.475L245.583 45.6816L244.438 45.6782Z" fill="#252627"/>
<path d="M252.857 45.6782V37.5546H253.931V44.7198H257.932V45.6782H252.857Z" fill="#252627"/>
</svg>
